<svg width="222" height="237" viewBox="0 0 222 237" fill="none" xmlns="http://www.w3.org/2000/svg">
<path d="M100.579 2.00003C103.603 2.00003 106.055 4.46168 106.055 7.49829V95.4704C106.055 96.9286 105.478 98.3271 104.451 99.3582L55.1618 148.842C53.0231 150.99 49.5555 150.99 47.4168 148.842C45.278 146.695 45.278 143.214 47.4168 141.067L78.6722 109.688V53.1668C78.6722 49.6695 75.7321 47.5743 73.0121 48.2158C59.9532 51.2958 44.584 56.7168 32.6197 64.8024C20.6278 72.9067 12.9532 83.0171 12.9532 95.4703V217.898C12.9532 220.011 14.1426 221.989 16.3129 223.28C18.5151 224.59 21.2189 224.857 23.4627 223.899C36.3128 218.416 53.5752 213.029 72.7482 211.418C76.2268 211.126 78.6722 208.368 78.6722 205.435V158.229L66.115 170.836C63.9762 172.983 60.5087 172.983 58.3699 170.836C56.2312 168.688 56.2312 165.207 58.3699 163.06L107.659 113.576C109.798 111.428 112.512 111.428 114.651 113.576L163.94 163.06C166.079 165.207 166.079 168.688 163.94 170.836C161.801 172.983 158.334 172.983 156.195 170.836L143.638 158.229V205.435C143.638 208.368 146.083 211.126 149.562 211.418C168.735 213.029 185.997 218.416 198.847 223.899C201.091 224.857 203.795 224.59 205.997 223.28C208.168 221.989 209.357 220.011 209.357 217.898V95.4703C209.357 83.0171 201.682 72.9067 189.69 64.8024C177.726 56.7168 162.357 51.2958 149.298 48.2158C146.578 47.5743 143.638 49.6695 143.638 53.1668V109.688L174.893 141.067C177.032 143.214 177.032 146.695 174.893 148.842C172.755 150.99 169.287 150.99 167.148 148.842L117.859 99.3582C116.832 98.3271 116.255 96.9286 116.255 95.4704V7.49829C116.255 4.46168 118.707 2.00003 121.732 2.00003C124.756 2.00003 127.208 4.46168 127.208 7.49829V93.1929L132.685 98.6912V53.1668C132.685 43.2803 141.545 35.0913 151.803 37.5107C165.562 40.7558 182.334 46.5751 195.807 55.6801C209.252 64.7665 220.31 77.797 220.31 95.4703V217.898C220.31 224.567 216.461 229.838 211.58 232.741C206.731 235.625 200.371 236.498 194.563 234.019C182.517 228.879 166.402 223.867 148.649 222.376C140.071 221.655 132.685 214.649 132.685 205.435V147.232L111.104 125.481L89.6254 147.232V205.435C89.6254 214.649 82.2394 221.655 73.6616 222.376C55.9083 223.867 39.7936 228.879 27.7471 234.019C21.9396 236.498 15.5792 235.625 10.7301 232.741C5.84914 229.838 2 224.567 2 217.898V95.4703C2 77.797 13.0581 64.7665 26.5033 55.6801C39.976 46.5751 56.7483 40.7558 70.5071 37.5107C80.765 35.0913 89.6254 43.2803 89.6254 53.1668V98.6912L95.102 93.1929V7.49829C95.102 4.46168 97.5539 2.00003 100.579 2.00003Z" stroke="#151515" stroke-width="3"/>
</svg>
